<svg width="300" height="150" viewBox="0 0 300 150" fill="none" xmlns="http://www.w3.org/2000/svg">
<rect width="300" height="150" rx="16" fill="white"/>
<path d="M277.793 102.182C276.563 102.182 275.586 101.205 275.586 99.9755C275.586 98.7817 276.563 97.7687 277.793 97.7687C278.987 97.7687 280 98.7455 280 99.9755C280 101.169 278.987 102.182 277.793 102.182ZM277.793 98.2028C276.816 98.2028 276.021 98.9987 276.021 99.9755C276.021 100.952 276.816 101.748 277.793 101.748C278.77 101.748 279.566 100.952 279.566 99.9755C279.566 98.9987 278.77 98.2028 277.793 98.2028ZM278.915 101.133H278.408L277.974 100.301H277.395V101.133H276.925V98.7093H278.083C278.589 98.7093 278.915 99.0349 278.915 99.5052C278.915 99.867 278.698 100.12 278.408 100.229L278.915 101.133ZM278.046 99.867C278.227 99.867 278.408 99.7584 278.408 99.5052C278.408 99.2158 278.263 99.1434 278.046 99.1434H277.323V99.867H278.046Z" fill="#404041"/>
<path d="M47.8921 97.5517H53.5356V112.927H63.3394V117.847H47.8921V97.5517Z" fill="#404041"/>
<path d="M69.1631 107.753V107.681C69.1631 101.857 73.866 97.1175 80.1245 97.1175C86.3831 97.1175 91.0136 101.784 91.0136 107.609V107.681C91.0136 113.505 86.3107 118.245 80.0522 118.245C73.7937 118.245 69.1631 113.578 69.1631 107.753ZM85.2978 107.753V107.681C85.2978 104.751 83.1995 102.218 80.0884 102.218C77.0134 102.218 74.9513 104.715 74.9513 107.645V107.717C74.9513 110.648 77.0495 113.18 80.1245 113.18C83.2357 113.18 85.2978 110.684 85.2978 107.753Z" fill="#404041"/>
<path d="M97.9243 108.947V97.5517H103.64V108.839C103.64 111.769 105.123 113.144 107.366 113.144C109.609 113.144 111.093 111.805 111.093 108.983V97.5517H116.808V108.803C116.808 115.35 113.082 118.208 107.294 118.208C101.542 118.208 97.9243 115.314 97.9243 108.947Z" fill="#404041"/>
<path d="M125.418 97.5517H133.232C140.467 97.5517 144.7 101.712 144.7 107.573V107.645C144.7 113.505 140.431 117.847 133.124 117.847H125.418V97.5517ZM133.341 112.854C136.705 112.854 138.948 111.009 138.948 107.717V107.645C138.948 104.389 136.705 102.508 133.341 102.508H131.061V112.818H133.341V112.854Z" fill="#404041"/>
<path d="M152.875 97.5517H169.119V102.472H158.483V105.945H168.106V110.611H158.483V117.847H152.875V97.5517Z" fill="#404041"/>
<path d="M176.933 97.5517H182.54V112.927H192.38V117.847H176.933V97.5517Z" fill="#404041"/>
<path d="M207.068 97.407H212.495L221.141 117.847H215.1L213.616 114.229H205.802L204.355 117.847H198.458L207.068 97.407ZM212.025 109.852L209.782 104.1L207.503 109.852H212.025Z" fill="#404041"/>
<path d="M228.376 97.5517H237.963C241.074 97.5517 243.208 98.3476 244.583 99.7585C245.777 100.916 246.392 102.472 246.392 104.498V104.57C246.392 107.681 244.728 109.743 242.232 110.792L247.079 117.883H240.567L236.48 111.733H234.019V117.883H228.376V97.5517ZM237.709 107.283C239.627 107.283 240.712 106.343 240.712 104.896V104.823C240.712 103.231 239.554 102.436 237.673 102.436H233.983V107.283H237.709Z" fill="#404041"/>
<path d="M254.496 97.5517H270.811V102.327H260.067V105.402H269.798V109.852H260.067V113.071H270.956V117.847H254.496V97.5517Z" fill="#404041"/>
<path d="M35.592 110.141C34.7962 111.914 33.132 113.18 30.9615 113.18C27.8865 113.18 25.7882 110.611 25.7882 107.717V107.645C25.7882 104.715 27.8503 102.218 30.9253 102.218C33.2406 102.218 35.0132 103.629 35.7367 105.583H41.6697C40.7291 100.735 36.4603 97.1537 30.9615 97.1537C24.7029 97.1537 20 101.893 20 107.717V107.79C20 113.614 24.6306 118.281 30.8891 118.281C36.2432 118.281 40.4397 114.808 41.525 110.177L35.592 110.141Z" fill="#404041"/>
<path d="M264.155 65.1738L248.635 56.2744L245.958 55.1167L182.468 55.5508V87.784H264.155V65.1738Z" fill="white"/>
<path d="M235.901 84.8176C236.661 82.2129 236.371 79.8252 235.105 78.0526C233.948 76.4246 231.994 75.484 229.643 75.3755L185.109 74.7967C184.82 74.7967 184.567 74.652 184.422 74.4349C184.277 74.2179 184.241 73.9285 184.314 73.6391C184.458 73.2049 184.892 72.8793 185.363 72.8432L230.294 72.2643C235.612 72.0111 241.4 67.7061 243.426 62.4244L245.994 55.7317C246.103 55.4423 246.139 55.1529 246.067 54.8635C243.173 41.7676 231.488 32 217.524 32C204.645 32 193.719 40.3206 189.812 51.8609C187.28 49.9797 184.06 48.9667 180.587 49.2923C174.401 49.9073 169.445 54.8635 168.83 61.0497C168.685 62.6414 168.794 64.197 169.156 65.6441C159.062 65.9335 150.995 74.1817 150.995 84.3473C150.995 85.2517 151.067 86.1561 151.176 87.0605C151.248 87.4946 151.61 87.8202 152.044 87.8202H234.237C234.707 87.8202 235.141 87.4946 235.286 87.0243L235.901 84.8176Z" fill="#F38020"/>
<path d="M250.082 56.202C249.684 56.202 249.25 56.202 248.852 56.2382C248.562 56.2382 248.309 56.4553 248.201 56.7447L246.464 62.7861C245.704 65.3908 245.994 67.7785 247.26 69.5511C248.418 71.1791 250.371 72.1196 252.723 72.2282L262.201 72.807C262.49 72.807 262.744 72.9517 262.888 73.1688C263.033 73.3858 263.069 73.7114 262.997 73.9646C262.852 74.3988 262.418 74.7244 261.948 74.7605L252.072 75.3393C246.717 75.5926 240.965 79.8976 238.939 85.1793L238.216 87.0243C238.071 87.3861 238.324 87.7479 238.722 87.7479H272.656C273.054 87.7479 273.416 87.4946 273.524 87.0967C274.103 84.9984 274.429 82.7917 274.429 80.5126C274.429 67.1273 263.503 56.202 250.082 56.202Z" fill="#FAAE40"/>
<path d="M25.728 76.736C26.4747 76.736 27.104 76.8347 27.616 77.032C28.128 77.224 28.608 77.5013 29.056 77.864L28.088 79.016C27.432 78.472 26.6747 78.2 25.816 78.2C25.2667 78.2 24.76 78.3387 24.296 78.616C23.832 78.8933 23.4587 79.344 23.176 79.968C22.8987 80.592 22.76 81.424 22.76 82.464C22.76 83.4827 22.8933 84.304 23.16 84.928C23.4267 85.552 23.7893 86.0053 24.248 86.288C24.712 86.5707 25.2347 86.712 25.816 86.712C26.408 86.712 26.8987 86.616 27.288 86.424C27.6773 86.2267 28.0213 86.0053 28.32 85.76L29.216 86.904C28.848 87.2613 28.3813 87.5707 27.816 87.832C27.2507 88.088 26.5627 88.216 25.752 88.216C24.8133 88.216 23.9733 87.9973 23.232 87.56C22.4907 87.1227 21.904 86.4773 21.472 85.624C21.0453 84.7653 20.832 83.712 20.832 82.464C20.832 81.2267 21.0533 80.184 21.496 79.336C21.9387 78.4827 22.528 77.8373 23.264 77.4C24.0053 76.9573 24.8267 76.736 25.728 76.736ZM37.4738 85.928C37.4738 86.264 37.5244 86.5067 37.6258 86.656C37.7271 86.8053 37.8898 86.9173 38.1138 86.992L37.7138 88.208C37.2978 88.16 36.9378 88.0453 36.6338 87.864C36.3351 87.6827 36.1111 87.408 35.9618 87.04C35.6524 87.4347 35.2604 87.7307 34.7858 87.928C34.3111 88.12 33.8044 88.216 33.2658 88.216C32.4071 88.216 31.7298 87.976 31.2338 87.496C30.7378 87.0107 30.4898 86.376 30.4898 85.592C30.4898 84.7013 30.8364 84.016 31.5298 83.536C32.2231 83.056 33.2151 82.816 34.5058 82.816H35.7138V82.264C35.7138 81.7147 35.5484 81.3227 35.2178 81.088C34.8871 80.848 34.4258 80.728 33.8338 80.728C33.5564 80.728 33.2204 80.7653 32.8258 80.84C32.4311 80.9093 32.0178 81.0187 31.5858 81.168L31.1458 79.904C31.6738 79.7067 32.1911 79.5627 32.6978 79.472C33.2044 79.376 33.6738 79.328 34.1058 79.328C35.2364 79.328 36.0791 79.5787 36.6338 80.08C37.1938 80.5813 37.4738 81.2747 37.4738 82.16V85.928ZM33.8098 86.896C34.1724 86.896 34.5271 86.8 34.8738 86.608C35.2204 86.416 35.5004 86.1467 35.7138 85.8V83.936H34.7218C33.8791 83.936 33.2764 84.0773 32.9138 84.36C32.5511 84.6373 32.3698 85.0213 32.3698 85.512C32.3698 86.4347 32.8498 86.896 33.8098 86.896ZM40.6915 88V86.72H41.9315V80.824H40.6915V79.552H43.2995L43.6275 81.512C43.9422 80.8027 44.3315 80.264 44.7955 79.896C45.2648 79.5227 45.8675 79.336 46.6035 79.336C46.8542 79.336 47.0782 79.3573 47.2755 79.4C47.4782 79.4373 47.6782 79.488 47.8755 79.552L47.5715 82.664H46.2915V80.944C45.6942 80.9653 45.1795 81.2053 44.7475 81.664C44.3155 82.1173 43.9742 82.7573 43.7235 83.584V86.72H45.4275V88H40.6915ZM50.2853 88V86.72H51.5253V80.824H50.2853V79.552H52.8932L53.2213 81.512C53.5359 80.8027 53.9253 80.264 54.3893 79.896C54.8586 79.5227 55.4613 79.336 56.1973 79.336C56.4479 79.336 56.6719 79.3573 56.8693 79.4C57.0719 79.4373 57.2719 79.488 57.4693 79.552L57.1653 82.664H55.8853V80.944C55.2879 80.9653 54.7733 81.2053 54.3413 81.664C53.9093 82.1173 53.5679 82.7573 53.3173 83.584V86.72H55.0213V88H50.2853ZM63.167 75.416C63.519 75.416 63.8017 75.5227 64.015 75.736C64.2337 75.9493 64.343 76.216 64.343 76.536C64.343 76.856 64.2337 77.1253 64.015 77.344C63.8017 77.5627 63.519 77.672 63.167 77.672C62.8257 77.672 62.5457 77.5627 62.327 77.344C62.1083 77.1253 61.999 76.856 61.999 76.536C61.999 76.216 62.1083 75.9493 62.327 75.736C62.5457 75.5227 62.8257 75.416 63.167 75.416ZM64.415 79.552V86.688H66.711V88H60.095V86.688H62.623V80.864H60.175V79.552H64.415ZM70.8808 84.352C70.9341 85.2213 71.1768 85.8507 71.6088 86.24C72.0461 86.6293 72.5714 86.824 73.1848 86.824C73.5954 86.824 73.9768 86.76 74.3288 86.632C74.6861 86.504 75.0434 86.3227 75.4008 86.088L76.1768 87.16C75.7821 87.48 75.3208 87.736 74.7928 87.928C74.2648 88.12 73.6994 88.216 73.0968 88.216C72.2168 88.216 71.4728 88.0293 70.8648 87.656C70.2621 87.2827 69.8034 86.7627 69.4888 86.096C69.1794 85.4293 69.0247 84.6587 69.0247 83.784C69.0247 82.936 69.1794 82.1787 69.4888 81.512C69.7981 80.84 70.2408 80.3093 70.8168 79.92C71.3928 79.5253 72.0808 79.328 72.8808 79.328C74.0008 79.328 74.8861 79.704 75.5368 80.456C76.1928 81.208 76.5208 82.24 76.5208 83.552C76.5208 83.696 76.5154 83.84 76.5048 83.984C76.4994 84.1227 76.4914 84.2453 76.4808 84.352H70.8808ZM72.8968 80.656C72.3368 80.656 71.8728 80.856 71.5048 81.256C71.1368 81.656 70.9261 82.28 70.8728 83.128H74.7848C74.7688 82.3333 74.5981 81.7227 74.2728 81.296C73.9528 80.8693 73.4941 80.656 72.8968 80.656ZM79.0665 88V86.72H80.3065V80.824H79.0665V79.552H81.6745L82.0025 81.512C82.3172 80.8027 82.7065 80.264 83.1705 79.896C83.6398 79.5227 84.2425 79.336 84.9785 79.336C85.2292 79.336 85.4532 79.3573 85.6505 79.4C85.8532 79.4373 86.0532 79.488 86.2505 79.552L85.9465 82.664H84.6665V80.944C84.0692 80.9653 83.5545 81.2053 83.1225 81.664C82.6905 82.1173 82.3492 82.7573 82.0985 83.584V86.72H83.8025V88H79.0665ZM95.1883 88H92.9483L91.9963 82L90.9723 88H88.7803L87.3483 79.552H89.0763L89.9563 86.888L91.1323 80.624H92.9243L94.0203 86.888L94.9003 79.552H96.5642L95.1883 88ZM104.63 85.928C104.63 86.264 104.681 86.5067 104.782 86.656C104.883 86.8053 105.046 86.9173 105.27 86.992L104.87 88.208C104.454 88.16 104.094 88.0453 103.79 87.864C103.491 87.6827 103.267 87.408 103.118 87.04C102.809 87.4347 102.417 87.7307 101.942 87.928C101.467 88.12 100.961 88.216 100.422 88.216C99.5633 88.216 98.886 87.976 98.39 87.496C97.894 87.0107 97.646 86.376 97.646 85.592C97.646 84.7013 97.9927 84.016 98.686 83.536C99.3793 83.056 100.371 82.816 101.662 82.816H102.87V82.264C102.87 81.7147 102.705 81.3227 102.374 81.088C102.043 80.848 101.582 80.728 100.99 80.728C100.713 80.728 100.377 80.7653 99.982 80.84C99.5873 80.9093 99.174 81.0187 98.742 81.168L98.302 79.904C98.83 79.7067 99.3473 79.5627 99.854 79.472C100.361 79.376 100.83 79.328 101.262 79.328C102.393 79.328 103.235 79.5787 103.79 80.08C104.35 80.5813 104.63 81.2747 104.63 82.16V85.928ZM100.966 86.896C101.329 86.896 101.683 86.8 102.03 86.608C102.377 86.416 102.657 86.1467 102.87 85.8V83.936H101.878C101.035 83.936 100.433 84.0773 100.07 84.36C99.7073 84.6373 99.526 85.0213 99.526 85.512C99.526 86.4347 100.006 86.896 100.966 86.896ZM115.168 79.552L112.192 88H110.096L107.12 79.552H109.04L111.184 86.512L113.336 79.552H115.168ZM118.85 84.352C118.903 85.2213 119.146 85.8507 119.578 86.24C120.015 86.6293 120.54 86.824 121.154 86.824C121.564 86.824 121.946 86.76 122.298 86.632C122.655 86.504 123.012 86.3227 123.37 86.088L124.146 87.16C123.751 87.48 123.29 87.736 122.762 87.928C122.234 88.12 121.668 88.216 121.066 88.216C120.186 88.216 119.442 88.0293 118.834 87.656C118.231 87.2827 117.772 86.7627 117.458 86.096C117.148 85.4293 116.993 84.6587 116.993 83.784C116.993 82.936 117.148 82.1787 117.458 81.512C117.767 80.84 118.21 80.3093 118.786 79.92C119.362 79.5253 120.05 79.328 120.85 79.328C121.97 79.328 122.855 79.704 123.506 80.456C124.162 81.208 124.49 82.24 124.49 83.552C124.49 83.696 124.484 83.84 124.474 83.984C124.468 84.1227 124.46 84.2453 124.45 84.352H118.85ZM120.866 80.656C120.306 80.656 119.842 80.856 119.474 81.256C119.106 81.656 118.895 82.28 118.842 83.128H122.754C122.738 82.3333 122.567 81.7227 122.242 81.296C121.922 80.8693 121.463 80.656 120.866 80.656ZM136.877 81.088C136.877 80.6933 137.016 80.3573 137.293 80.08C137.57 79.7973 137.912 79.656 138.317 79.656C138.722 79.656 139.064 79.7973 139.341 80.08C139.618 80.3573 139.757 80.6933 139.757 81.088C139.757 81.4827 139.618 81.824 139.341 82.112C139.064 82.3947 138.722 82.536 138.317 82.536C137.912 82.536 137.57 82.3947 137.293 82.112C137.016 81.824 136.877 81.4827 136.877 81.088ZM136.877 86.768C136.877 86.3787 137.016 86.0453 137.293 85.768C137.57 85.4853 137.912 85.344 138.317 85.344C138.722 85.344 139.064 85.4853 139.341 85.768C139.618 86.0453 139.757 86.3787 139.757 86.768C139.757 87.168 139.618 87.5093 139.341 87.792C139.064 88.0747 138.722 88.216 138.317 88.216C137.912 88.216 137.57 88.0747 137.293 87.792C137.016 87.5093 136.877 87.168 136.877 86.768ZM130.477 81.088C130.477 80.6933 130.616 80.3573 130.893 80.08C131.17 79.7973 131.512 79.656 131.917 79.656C132.322 79.656 132.664 79.7973 132.941 80.08C133.218 80.3573 133.357 80.6933 133.357 81.088C133.357 81.4827 133.218 81.824 132.941 82.112C132.664 82.3947 132.322 82.536 131.917 82.536C131.512 82.536 131.17 82.3947 130.893 82.112C130.616 81.824 130.477 81.4827 130.477 81.088ZM130.477 86.768C130.477 86.3787 130.616 86.0453 130.893 85.768C131.17 85.4853 131.512 85.344 131.917 85.344C132.322 85.344 132.664 85.4853 132.941 85.768C133.218 86.0453 133.357 86.3787 133.357 86.768C133.357 87.168 133.218 87.5093 132.941 87.792C132.664 88.0747 132.322 88.216 131.917 88.216C131.512 88.216 131.17 88.0747 130.893 87.792C130.616 87.5093 130.477 87.168 130.477 86.768Z" fill="#F38020"/>
</svg>
